<svg width="75" height="75" viewBox="0 0 75 75" fill="none" xmlns="http://www.w3.org/2000/svg">
<g clip-path="url(#clip0_8:251)">
<path d="M27.9046 46.0475C26.9127 45.1457 25.3634 45.1621 24.4535 46.0721C23.9535 46.5721 23.6911 47.2116 23.7075 47.892C23.7239 48.5232 23.9862 49.1135 24.4535 49.548C24.8879 50.0153 25.47 50.2776 26.1094 50.2939C26.1258 50.2939 26.1504 50.2939 26.1668 50.2939C26.8226 50.2939 27.4455 50.0316 27.9374 49.5562C28.8473 48.638 28.8637 47.0967 27.962 46.1048C27.9455 46.0803 27.921 46.0639 27.9046 46.0475ZM26.7651 48.4003C26.5848 48.5725 26.3635 48.6627 26.1421 48.6627C26.0028 48.6545 25.806 48.6135 25.6339 48.425C25.6175 48.4004 25.5929 48.384 25.5765 48.3676C25.388 48.2037 25.3388 47.9987 25.3388 47.8594C25.3306 47.6298 25.429 47.4084 25.6011 47.2363C25.7487 47.097 25.9536 47.0232 26.1585 47.0232C26.3716 47.0232 26.5929 47.097 26.7651 47.2445C27.052 47.5887 27.052 48.1134 26.7651 48.4003Z" fill="#FEFEFE"/>
<path d="M56.7592 26.3635L47.6356 17.2391C47.3159 16.9193 46.7994 16.9193 46.4798 17.2391L17.2398 46.4813C16.9201 46.8011 16.9201 47.3175 17.2398 47.6372L26.3634 56.7615C26.5192 56.9173 26.7241 56.9992 26.9455 56.9992C27.1669 56.9992 27.3717 56.9091 27.5275 56.7615L56.7675 27.5193C57.0788 27.1997 57.0789 26.6832 56.7592 26.3635ZM52.39 29.5689L48.3733 25.6092C48.0536 25.2895 47.5289 25.2977 47.2175 25.6174C46.8978 25.9372 46.906 26.4619 47.2257 26.7733L51.2342 30.7247L49.4635 32.4955L47.5781 30.6099C47.2584 30.2902 46.742 30.2902 46.4223 30.6099C46.1026 30.9297 46.1026 31.4461 46.4223 31.7658L48.3077 33.6514L46.5616 35.3975L42.5777 31.4215C42.258 31.1018 41.7416 31.1018 41.4219 31.4215C41.1022 31.7413 41.1022 32.2578 41.4219 32.5774L45.4058 36.5534L43.6598 38.2996L41.7743 36.414C41.4547 36.0942 40.9382 36.0942 40.6185 36.414C40.2989 36.7338 40.2989 37.2502 40.6185 37.5699L42.5039 39.4555L40.7251 41.2344L36.7821 37.2256C36.4625 36.9058 35.946 36.8976 35.6263 37.2174C35.3066 37.5371 35.2984 38.0536 35.6181 38.3733L39.5775 42.3903L37.8314 44.1365L35.9132 42.2181C35.5935 41.8983 35.077 41.8983 34.7574 42.2181C34.4377 42.5379 34.4377 43.0543 34.7574 43.374L36.6756 45.2924L34.9295 47.0385L31.3227 43.4888C31.003 43.169 30.4784 43.1772 30.1669 43.497C29.8472 43.8167 29.8554 44.3414 30.1751 44.6529L33.7737 48.1944L26.9699 54.9988L19.0103 47.0385L47.0944 18.9522L55.054 26.9124L52.39 29.5689Z" fill="#FEFEFE"/>
</g>
<defs>
<clipPath id="clip0_8:251">
<rect width="40" height="40" fill="white" transform="translate(17 17)"/>
</clipPath>
</defs>
</svg>
