<svg width="42" height="42" viewBox="0 0 42 42" fill="none" xmlns="http://www.w3.org/2000/svg">
<path d="M21.5657 0.434258C21.2533 0.121838 20.7467 0.121838 20.4343 0.434258L15.3431 5.52543C15.0307 5.83784 15.0307 6.34438 15.3431 6.6568C15.6556 6.96922 16.1621 6.96922 16.4745 6.6568L21 2.13131L25.5255 6.6568C25.8379 6.96922 26.3444 6.96922 26.6569 6.6568C26.9693 6.34438 26.9693 5.83784 26.6569 5.52543L21.5657 0.434258ZM21.8 21.8695L21.8 0.999943H20.2L20.2 21.8695H21.8Z" fill="#FEFEFE"/>
<path d="M0.434319 20.4343C0.121899 20.7467 0.121899 21.2533 0.434319 21.5657L5.52549 26.6569C5.83791 26.9693 6.34444 26.9693 6.65686 26.6569C6.96928 26.3444 6.96928 25.8379 6.65686 25.5255L2.13137 21L6.65686 16.4745C6.96928 16.1621 6.96928 15.6556 6.65686 15.3431C6.34444 15.0307 5.83791 15.0307 5.52549 15.3431L0.434319 20.4343ZM21.8696 20.2L1 20.2L1 21.8L21.8696 21.8L21.8696 20.2Z" fill="#FEFEFE"/>
<path d="M41.5657 21.5657C41.8781 21.2533 41.8781 20.7467 41.5657 20.4343L36.4745 15.3431C36.1621 15.0307 35.6556 15.0307 35.3431 15.3431C35.0307 15.6556 35.0307 16.1621 35.3431 16.4745L39.8686 21L35.3431 25.5255C35.0307 25.8379 35.0307 26.3444 35.3431 26.6569C35.6556 26.9693 36.1621 26.9693 36.4745 26.6569L41.5657 21.5657ZM20.1304 21.8L41 21.8V20.2L20.1304 20.2V21.8Z" fill="#FEFEFE"/>
<path d="M20.4343 41.5657C20.7467 41.8782 21.2533 41.8782 21.5657 41.5657L26.6569 36.4746C26.9693 36.1622 26.9693 35.6556 26.6569 35.3432C26.3444 35.0308 25.8379 35.0308 25.5255 35.3432L21 39.8687L16.4745 35.3432C16.1621 35.0308 15.6556 35.0308 15.3431 35.3432C15.0307 35.6556 15.0307 36.1622 15.3431 36.4746L20.4343 41.5657ZM20.2 20.1305V41.0001H21.8V20.1305H20.2Z" fill="#FEFEFE"/>
</svg>
