<svg width="27" height="42" viewBox="0 0 27 42" fill="none" xmlns="http://www.w3.org/2000/svg">
<path fill-rule="evenodd" clip-rule="evenodd" d="M10.6188 0.123379C7.6506 0.569179 4.4814 1.73078 5.379 2.04378C7.7636 2.87538 10.1328 4.38178 11.9054 6.19318L13.192 7.50818L14.121 6.46958C15.7068 4.69658 18.1516 3.05738 20.4176 2.24758L21.4342 1.88418L20.511 1.41738C18.4558 0.378179 13.3602 -0.288421 10.6188 0.123379ZM16.8204 1.88258C17.0802 2.02978 17.016 2.11138 16.2616 2.59218C15.7928 2.89098 14.904 3.57418 14.2866 4.11018L13.1638 5.08458L11.9816 4.06918C11.3314 3.51078 10.4506 2.82998 10.0242 2.55638C9.598 2.28298 9.278 2.03038 9.3132 1.99518C9.6766 1.63178 16.2044 1.53378 16.8204 1.88258ZM0 3.89738V4.62378L0.957999 4.73498C1.485 4.79598 1.9162 4.86778 1.9162 4.89438C1.9162 4.92098 1.7376 5.32718 1.5196 5.79698C0.559598 7.86478 0.3878 10.715 1.0992 12.771L1.4486 13.7812L1.0518 14.6074C-1.0706 19.025 1.032 27.129 5.7584 32.7472L6.756 33.933L6.2392 35.5094L5.7226 37.086L6.1434 37.6378C9.4244 41.9394 14.9664 42.5136 18.7792 38.947C20.5382 37.3014 20.5056 37.397 19.9286 35.582L19.4374 34.0364L20.1418 33.2778C25.2552 27.773 27.711 18.809 25.3046 14.4332C24.9308 13.7538 24.9306 13.751 25.227 13.076C26.152 10.97 25.9834 7.89098 24.8174 5.58838L24.441 4.84498L25.3942 4.73438L26.3472 4.62378V3.89738V3.17098L24.8702 3.26598C20.3696 3.55558 15.867 6.31058 13.6616 10.1242C13.1246 11.0532 13.2342 11.0758 12.5118 9.88658C10.2762 6.20638 5.8434 3.54698 1.477 3.26598L0 3.17098V3.89738ZM23.287 6.06718C25.6588 10.517 23.9324 14.7028 19.1968 15.985C17.1302 16.5444 15.682 17.1634 14.2356 18.105C13.4154 18.6392 13.1714 18.7308 12.9582 18.5848C11.1322 17.336 9.2816 16.4958 7.2438 15.9908C2.675 14.8588 0.862998 10.6466 3.0566 6.25678C3.562 5.24558 3.7448 5.14698 4.549 5.45278L4.9674 5.61178L4.585 6.13138C1.5236 10.2924 7.1628 15.4464 11.1208 12.105C11.788 11.5416 11.692 11.4402 12.4664 13.5296L13.1514 15.378L13.354 14.847C13.4654 14.5548 13.7798 13.726 14.0526 13.0052L14.549 11.6946L15.2984 12.2238C19.4338 15.1446 24.6106 10.3342 21.7958 6.18638L21.4006 5.60398L21.7582 5.47178C21.9548 5.39918 22.2236 5.29918 22.3552 5.24958C22.487 5.19998 22.6386 5.15358 22.6922 5.14678C22.746 5.13978 23.0136 5.55398 23.287 6.06718ZM7.051 6.66398L7.5392 6.91638L7.0474 7.39718C5.7636 8.65238 6.7996 10.84 8.5156 10.4968C9.0742 10.3852 9.8976 9.67338 9.9052 9.29578C9.9116 8.98278 10.6986 9.83658 10.6986 10.1564C10.6986 10.5096 9.6308 11.336 8.9308 11.5244C6.2616 12.2432 4.139 8.82658 6.0274 6.85078C6.5218 6.33318 6.44 6.34818 7.051 6.66398ZM20.2316 6.77078C21.3888 8.04118 21.089 10.1826 19.6178 11.1562C18.4568 11.9246 16.5656 11.6268 15.8028 10.5554L15.484 10.1078L15.8524 9.67958L16.2208 9.25118L16.797 9.82738C18.4744 11.5048 20.8866 9.25658 19.3216 7.47438L18.843 6.92918L19.2018 6.67878C19.6904 6.33778 19.8502 6.35218 20.2316 6.77078ZM4.4024 16.6514C6.8608 18.0388 8.6128 26.4344 7.4638 31.3218L7.2572 32.2L6.5576 31.3218C2.753 26.5456 0.964798 20.1164 2.2364 15.7848L2.4146 15.178L2.975 15.67C3.2832 15.9406 3.9254 16.3822 4.4024 16.6514ZM24.297 16.039C25.4838 20.1524 23.5046 26.8648 19.7914 31.319L18.9284 32.3542L18.7204 31.4788C17.5266 26.4528 19.3472 17.9252 21.8696 16.7272C22.3786 16.4856 23.0308 16.0444 23.319 15.747C23.9342 15.1124 24.0386 15.1434 24.297 16.039ZM10.3822 18.878C11.0898 19.246 12.0144 19.8582 12.4372 20.2382L13.2056 20.9292L13.8284 20.358C14.9266 19.3506 18.4838 17.4968 18.7696 17.7828C18.8118 17.825 18.6616 18.2774 18.4356 18.7882C17.027 21.9736 16.446 26.8078 17.0132 30.6268L17.2598 32.2884L16.7484 32.7232C15.7956 33.5334 13.334 35.3098 13.2168 35.2718C12.9814 35.1954 10.278 33.2278 9.6052 32.6432L8.9112 32.04L9.0904 31.082C9.77 27.4476 9.2466 22.4918 7.811 18.969C7.5554 18.3418 7.3462 17.7788 7.3458 17.7176C7.3448 17.53 9.0258 18.1722 10.3822 18.878ZM12.5124 36.6494L13.255 37.0846L14.412 36.339C15.0482 35.929 16.0252 35.236 16.5832 34.7992C17.7594 33.8786 17.7242 33.8612 18.2594 35.6312L18.6692 36.9866L17.8986 37.7102C15.262 40.1856 11.851 40.3966 8.9536 38.2638C7.4362 37.1466 7.4198 37.0952 8.0142 35.2912L8.5168 33.7652L10.1432 34.9896C11.0378 35.6632 12.1038 36.41 12.5124 36.6494Z" fill="#FEFEFE"/>
</svg>
