<svg width="40" height="40" viewBox="0 0 40 40" fill="none" xmlns="http://www.w3.org/2000/svg">
<mask id="path-1-inside-1_8:378" fill="white">
<rect y="18.9474" width="21.0526" height="21.0526" rx="0.701754"/>
</mask>
<rect y="18.9474" width="21.0526" height="21.0526" rx="0.701754" stroke="#FEFEFE" stroke-width="3.50877" mask="url(#path-1-inside-1_8:378)"/>
<mask id="path-2-inside-2_8:378" fill="white">
<rect width="40" height="40" rx="0.701754"/>
</mask>
<rect width="40" height="40" rx="0.701754" stroke="#FEFEFE" stroke-width="3.50877" stroke-linecap="square" stroke-linejoin="bevel" stroke-dasharray="3.51 7.02" mask="url(#path-2-inside-2_8:378)"/>
<path d="M33.0391 7.71058C33.0433 7.22614 32.654 6.83001 32.1695 6.8258L24.2751 6.75715C23.7906 6.75294 23.3945 7.14224 23.3903 7.62668C23.3861 8.11112 23.7754 8.50726 24.2598 8.51147L31.2771 8.57249L31.2161 15.5898C31.2119 16.0742 31.6012 16.4703 32.0856 16.4746C32.5701 16.4788 32.9662 16.0895 32.9704 15.605L33.0391 7.71058ZM20.264 20.6256L32.7767 8.32859L31.547 7.07732L19.0343 19.3744L20.264 20.6256Z" fill="#FEFEFE"/>
</svg>
