<svg width="40" height="40" viewBox="0 0 40 40" fill="none" xmlns="http://www.w3.org/2000/svg">
<path d="M34.6667 0V2C34.298 2 34 2.298 34 2.66667C34 3.03533 34.298 3.33333 34.6667 3.33333V5.33333H36.6667C36.6667 5.702 36.9647 6 37.3333 6C37.702 6 38 5.702 38 5.33333H40V0H34.6667ZM38.6667 4H36V1.33333H38.6667V4Z" fill="#FEFEFE"/>
<path d="M3.33333 14.6667C3.33333 14.298 3.03533 14 2.66667 14C2.298 14 2 14.298 2 14.6667V15.3333C2 15.702 2.298 16 2.66667 16C3.03533 16 3.33333 15.702 3.33333 15.3333V14.6667Z" fill="#FEFEFE"/>
<path d="M2.66667 30.6666C2.298 30.6666 2 30.9646 2 31.3333V32C2 32.3686 2.298 32.6666 2.66667 32.6666C3.03533 32.6666 3.33333 32.3686 3.33333 32V31.3333C3.33333 30.9646 3.03533 30.6666 2.66667 30.6666Z" fill="#FEFEFE"/>
<path d="M3.33333 8.00004C3.33333 7.63137 3.03533 7.33337 2.66667 7.33337C2.298 7.33337 2 7.63137 2 8.00004V8.66671C2 9.03537 2.298 9.33337 2.66667 9.33337C3.03533 9.33337 3.33333 9.03537 3.33333 8.66671V8.00004Z" fill="#FEFEFE"/>
<path d="M3.33333 18C3.33333 17.6314 3.03533 17.3334 2.66667 17.3334C2.298 17.3334 2 17.6314 2 18V18.6667C2 19.0354 2.298 19.3334 2.66667 19.3334C3.03533 19.3334 3.33333 19.0354 3.33333 18.6667V18Z" fill="#FEFEFE"/>
<path d="M2.66667 6C3.03533 6 3.33333 5.702 3.33333 5.33333H5.33333V3.33333C5.702 3.33333 6 3.03533 6 2.66667C6 2.298 5.702 2 5.33333 2V0H0V5.33333H2C2 5.702 2.298 6 2.66667 6ZM1.33333 4V1.33333H4V4H1.33333Z" fill="#FEFEFE"/>
<path d="M3.33333 28C3.33333 27.6314 3.03533 27.3334 2.66667 27.3334C2.298 27.3334 2 27.6314 2 28V28.6667C2 29.0354 2.298 29.3334 2.66667 29.3334C3.03533 29.3334 3.33333 29.0354 3.33333 28.6667V28Z" fill="#FEFEFE"/>
<path d="M3.33333 21.3333C3.33333 20.9646 3.03533 20.6666 2.66667 20.6666C2.298 20.6666 2 20.9646 2 21.3333V22C2 22.3686 2.298 22.6666 2.66667 22.6666C3.03533 22.6666 3.33333 22.3686 3.33333 22V21.3333Z" fill="#FEFEFE"/>
<path d="M3.33333 24.6667C3.33333 24.298 3.03533 24 2.66667 24C2.298 24 2 24.298 2 24.6667V25.3333C2 25.702 2.298 26 2.66667 26C3.03533 26 3.33333 25.702 3.33333 25.3333V24.6667Z" fill="#FEFEFE"/>
<path d="M3.33333 11.3333C3.33333 10.9646 3.03533 10.6666 2.66667 10.6666C2.298 10.6666 2 10.9646 2 11.3333V12C2 12.3686 2.298 12.6666 2.66667 12.6666C3.03533 12.6666 3.33333 12.3686 3.33333 12V11.3333Z" fill="#FEFEFE"/>
<path d="M14.6667 3.33333H15.3333C15.702 3.33333 16 3.03533 16 2.66667C16 2.298 15.702 2 15.3333 2H14.6667C14.298 2 14 2.298 14 2.66667C14 3.03533 14.298 3.33333 14.6667 3.33333Z" fill="#FEFEFE"/>
<path d="M7.99998 3.33333H8.66665C9.03531 3.33333 9.33331 3.03533 9.33331 2.66667C9.33331 2.298 9.03531 2 8.66665 2H7.99998C7.63131 2 7.33331 2.298 7.33331 2.66667C7.33331 3.03533 7.63131 3.33333 7.99998 3.33333Z" fill="#FEFEFE"/>
<path d="M11.3334 3.33333H12C12.3687 3.33333 12.6667 3.03533 12.6667 2.66667C12.6667 2.298 12.3687 2 12 2H11.3334C10.9647 2 10.6667 2.298 10.6667 2.66667C10.6667 3.03533 10.9647 3.33333 11.3334 3.33333Z" fill="#FEFEFE"/>
<path d="M18 3.33333H18.6666C19.0353 3.33333 19.3333 3.03533 19.3333 2.66667C19.3333 2.298 19.0353 2 18.6666 2H18C17.6313 2 17.3333 2.298 17.3333 2.66667C17.3333 3.03533 17.6313 3.33333 18 3.33333Z" fill="#FEFEFE"/>
<path d="M21.3334 3.33333H22C22.3687 3.33333 22.6667 3.03533 22.6667 2.66667C22.6667 2.298 22.3687 2 22 2H21.3334C20.9647 2 20.6667 2.298 20.6667 2.66667C20.6667 3.03533 20.9647 3.33333 21.3334 3.33333Z" fill="#FEFEFE"/>
<path d="M31.3334 3.33333H32C32.3687 3.33333 32.6667 3.03533 32.6667 2.66667C32.6667 2.298 32.3687 2 32 2H31.3334C30.9647 2 30.6667 2.298 30.6667 2.66667C30.6667 3.03533 30.9647 3.33333 31.3334 3.33333Z" fill="#FEFEFE"/>
<path d="M24.6667 3.33333H25.3333C25.702 3.33333 26 3.03533 26 2.66667C26 2.298 25.702 2 25.3333 2H24.6667C24.298 2 24 2.298 24 2.66667C24 3.03533 24.298 3.33333 24.6667 3.33333Z" fill="#FEFEFE"/>
<path d="M28 3.33333H28.6666C29.0353 3.33333 29.3333 3.03533 29.3333 2.66667C29.3333 2.298 29.0353 2 28.6666 2H28C27.6313 2 27.3333 2.298 27.3333 2.66667C27.3333 3.03533 27.6313 3.33333 28 3.33333Z" fill="#FEFEFE"/>
<path d="M37.3334 9.33337C37.702 9.33337 38 9.03537 38 8.66671V8.00004C38 7.63137 37.702 7.33337 37.3334 7.33337C36.9647 7.33337 36.6667 7.63137 36.6667 8.00004V8.66671C36.6667 9.03537 36.9647 9.33337 37.3334 9.33337Z" fill="#FEFEFE"/>
<path d="M36.6667 15.3333C36.6667 15.702 36.9647 16 37.3334 16C37.702 16 38 15.702 38 15.3333V14.6667C38 14.298 37.702 14 37.3334 14C36.9647 14 36.6667 14.298 36.6667 14.6667V15.3333Z" fill="#FEFEFE"/>
<path d="M37.3333 34C36.9647 34 36.6667 34.298 36.6667 34.6667H35.788L30 19.874V15.3334H24.6667V17.3334H15.3333V15.3334H10V19.874L4.21133 34.6667H3.33333C3.33333 34.298 3.03533 34 2.66667 34C2.298 34 2 34.298 2 34.6667H0V40H5.33333V38H34.6667V40H40V34.6667H38C38 34.298 37.702 34 37.3333 34ZM26 16.6667H28.6667V19.3334H26V17.3334V16.6667ZM11.3333 16.6667H14V17.3334V19.3334H11.3333V16.6667ZM4 38.6667H1.33333V36H4V38V38.6667ZM5.33333 36.6667V35.4587L11.122 20.6667H15.3333V18.6667H24.6667V20.6667H28.878L34.6667 35.4587V36.6667H5.33333ZM38.6667 36V38.6667H36V38V36H38.6667Z" fill="#FEFEFE"/>
<path d="M36.6667 12C36.6667 12.3686 36.9647 12.6666 37.3334 12.6666C37.702 12.6666 38 12.3686 38 12V11.3333C38 10.9646 37.702 10.6666 37.3334 10.6666C36.9647 10.6666 36.6667 10.9646 36.6667 11.3333V12Z" fill="#FEFEFE"/>
<path d="M36.6667 18.6667C36.6667 19.0354 36.9647 19.3334 37.3334 19.3334C37.702 19.3334 38 19.0354 38 18.6667V18C38 17.6314 37.702 17.3334 37.3334 17.3334C36.9647 17.3334 36.6667 17.6314 36.6667 18V18.6667Z" fill="#FEFEFE"/>
<path d="M36.6667 25.3333C36.6667 25.702 36.9647 26 37.3334 26C37.702 26 38 25.702 38 25.3333V24.6667C38 24.298 37.702 24 37.3334 24C36.9647 24 36.6667 24.298 36.6667 24.6667V25.3333Z" fill="#FEFEFE"/>
<path d="M36.6667 32C36.6667 32.3686 36.9647 32.6666 37.3334 32.6666C37.702 32.6666 38 32.3686 38 32V31.3333C38 30.9646 37.702 30.6666 37.3334 30.6666C36.9647 30.6666 36.6667 30.9646 36.6667 31.3333V32Z" fill="#FEFEFE"/>
<path d="M36.6667 28.6667C36.6667 29.0354 36.9647 29.3334 37.3334 29.3334C37.702 29.3334 38 29.0354 38 28.6667V28C38 27.6314 37.702 27.3334 37.3334 27.3334C36.9647 27.3334 36.6667 27.6314 36.6667 28V28.6667Z" fill="#FEFEFE"/>
<path d="M36.6667 22C36.6667 22.3686 36.9647 22.6666 37.3334 22.6666C37.702 22.6666 38 22.3686 38 22V21.3333C38 20.9646 37.702 20.6666 37.3334 20.6666C36.9647 20.6666 36.6667 20.9646 36.6667 21.3333V22Z" fill="#FEFEFE"/>
</svg>
